<svg width="16" height="16" viewBox="0 0 16 16" fill="none" xmlns="http://www.w3.org/2000/svg">
<path d="M0.833496 7.91299L0.833496 3.98028C0.833496 2.05817 2.39529 0.5 4.32187 0.5L8.22884 0.5V2.69258C8.22884 5.57573 5.88615 7.91299 2.99629 7.91299H0.833496Z" fill="#D6302A"/>
<path d="M8.40326 0.517401H12.3451C14.2717 0.517401 15.8335 2.07558 15.8335 3.99768V7.89559H13.6358C10.746 7.89559 8.40326 5.55833 8.40326 2.67517V0.517401Z" fill="#D6302A"/>
<path d="M8.26373 15.4652H4.32187C2.39529 15.4652 0.833497 13.907 0.833496 11.9849L0.833496 8.08701H3.03117C5.92103 8.08701 8.26373 10.4243 8.26373 13.3074V15.4652Z" fill="#D6302A"/>
<path d="M15.8335 8.08701V12.0197C15.8335 13.9418 14.2717 15.5 12.3451 15.5H8.43815V13.3074C8.43815 10.4243 10.7808 8.08701 13.6707 8.08701H15.8335Z" fill="#D6302A"/>
</svg>
