<svg width="17" height="16" viewBox="0 0 17 16" fill="none" xmlns="http://www.w3.org/2000/svg">
<path fill-rule="evenodd" clip-rule="evenodd" d="M0.666687 3.7123C0.666687 1.66205 2.3326 0 4.38762 0L12.9458 0.0185615C15.0008 0.0185615 16.6667 1.68061 16.6667 3.73086V12.2877C16.6667 14.3379 15.0008 16 12.9458 16L4.38762 15.9629C2.3326 15.9629 0.666687 14.3008 0.666687 12.2506V3.7123ZM4.65 3H12.35C12.7876 3 13.2073 3.17779 13.5167 3.49426C13.8262 3.81072 14 4.23995 14 4.6875V10.3125C14 10.7601 13.8262 11.1893 13.5167 11.5057C13.2073 11.8222 12.7876 12 12.35 12H4.65C4.21239 12 3.79271 11.8222 3.48327 11.5057C3.17384 11.1893 3 10.7601 3 10.3125V4.6875C3 4.23995 3.17384 3.81072 3.48327 3.49426C3.79271 3.17779 4.21239 3 4.65 3ZM12.35 4.125H4.65C4.50413 4.125 4.36424 4.18426 4.26109 4.28975C4.15795 4.39524 4.1 4.53832 4.1 4.6875L8.5 7.4325L12.9 4.6875C12.9 4.53832 12.8421 4.39524 12.7389 4.28975C12.6358 4.18426 12.4959 4.125 12.35 4.125ZM12.7389 10.7102C12.8421 10.6048 12.9 10.4617 12.9 10.3125V5.97L8.764 8.54063C8.68039 8.58999 8.58555 8.61599 8.489 8.61599C8.39245 8.61599 8.29761 8.58999 8.214 8.54063L4.1 5.97V10.3125C4.1 10.4617 4.15795 10.6048 4.26109 10.7102C4.36424 10.8157 4.50413 10.875 4.65 10.875H12.35C12.4959 10.875 12.6358 10.8157 12.7389 10.7102Z" fill="#D6302A"/>
</svg>
