<svg width="16" height="16" viewBox="0 0 16 16" fill="none" xmlns="http://www.w3.org/2000/svg">
<g clip-path="url(#clip0_2483_1394)">
<path fill-rule="evenodd" clip-rule="evenodd" d="M16 8.00001C20.4183 8.00001 24 4.41828 24 3.8147e-06C24 -4.41828 20.4183 -8 16 -8C11.5817 -8 8 -4.41828 8 3.8147e-06L3.72175 1.90735e-06L3.72093 0C3.71971 0 3.71848 1.90735e-06 3.71725 1.90735e-06M3.71712 1.90735e-06L0 0V3.7123V12.2506V16H12.2791H16V12.2877V8.00001C15.1017 8.00001 14.2381 7.85195 13.432 7.57892C13.4492 7.38881 13.4568 7.19444 13.4568 6.99829V6.3985C13.4568 5.88921 13.4036 5.44029 13.2876 5.05983C13.1624 4.64955 12.9479 4.29646 12.6598 3.99249L12.6438 3.97561L12.6269 3.95964C12.32 3.66935 11.972 3.46212 11.5684 3.32735L11.5528 3.32217L11.5371 3.31759C11.1528 3.20558 10.7092 3.15152 10.2075 3.15152H9.35897V3.15223H8.64498C8.23101 2.18761 8.00127 1.1252 8.00001 0.00928116L8 3.8147e-06L16 0V3.73086V8.00001M9.88316 7.63473H5.15619V5.76421H9.88316C10.1593 5.76421 10.3513 5.81234 10.4476 5.89638C10.544 5.98042 10.6036 6.1363 10.6036 6.36401V7.03565C10.6036 7.27556 10.544 7.43144 10.4476 7.51549C10.3513 7.59953 10.1593 7.63546 9.88316 7.63546V7.63473ZM10.2075 4.00072H3.15152V12H5.15619V9.3975H8.85063L10.6036 12H12.8485L10.9157 9.3853C11.6283 9.2797 11.9482 9.06132 12.2121 8.70144C12.476 8.34156 12.6084 7.76618 12.6084 6.99829V6.3985C12.6084 5.94307 12.5601 5.58319 12.476 5.30736C12.3919 5.03152 12.2481 4.7916 12.0439 4.5761C11.8282 4.3721 11.588 4.22842 11.2997 4.13217C11.0113 4.04813 10.6511 4 10.2075 4V4.00072Z" fill="#D6302A"/>
</g>
<defs>
<clipPath id="clip0_2483_1394">
<rect width="16" height="16" rx="3.725" fill="white"/>
</clipPath>
</defs>
</svg>
