<svg width="24" height="24" viewBox="0 0 24 24" fill="none" xmlns="http://www.w3.org/2000/svg">
<path fill-rule="evenodd" clip-rule="evenodd" d="M8.26495 5.61892C10.7246 5.08143 13.2754 5.08143 15.7351 5.61892L16.0161 5.68035C17.1312 5.924 18.0112 6.76006 18.2923 7.84268C18.911 10.2262 18.911 12.7231 18.2923 15.1067C18.0112 16.1893 17.1312 17.0254 16.0161 17.269L15.7351 17.3304C14.1092 17.6857 12.4436 17.8062 10.7907 17.6918C10.623 17.6801 10.4575 17.7355 10.3322 17.8451L8.77975 19.203L8.53577 17.7781C8.49398 17.5341 8.30509 17.3392 8.05811 17.2852L7.98386 17.269C6.86883 17.0254 5.98878 16.1893 5.70774 15.1067C5.08899 12.7231 5.08899 10.2262 5.70774 7.84268C5.98878 6.76006 6.86883 5.924 7.98386 5.68035L8.26495 5.61892ZM12.5642 6.55319C12.3352 6.55319 12.1496 6.73463 12.1496 6.95846C12.1496 7.18228 12.3352 7.36373 12.5642 7.36373C13.6126 7.36373 14.4838 7.69874 15.172 8.34023C15.5263 8.69151 15.802 9.10731 15.9831 9.56234C16.1648 10.0191 16.2475 10.5061 16.2263 10.9939C16.2166 11.2176 16.3941 11.4065 16.6229 11.4161C16.8516 11.4256 17.0449 11.252 17.0546 11.0284C17.0808 10.4282 16.979 9.82942 16.7558 9.26849C16.5326 8.70759 16.1929 8.19645 15.7575 7.76614L15.7492 7.75835C14.8952 6.95995 13.8128 6.55319 12.5642 6.55319ZM8.73819 7.5273C8.58418 7.5053 8.4271 7.53553 8.29311 7.61294H8.28168C7.97059 7.79121 7.69035 8.01652 7.45137 8.2805C7.25277 8.50496 7.14504 8.73209 7.11674 8.95071C7.09987 9.08103 7.1113 9.21135 7.15102 9.33582L7.16517 9.34433C7.3888 9.98688 7.68098 10.605 8.03792 11.1869C8.49771 12.0044 9.06354 12.7605 9.7214 13.4364L9.74099 13.464L9.772 13.4864L9.79159 13.5087L9.81444 13.5278C10.5083 14.1728 11.2836 14.7286 12.1215 15.1816C13.0791 15.6911 13.6602 15.9321 14.009 16.0321V16.0374C14.1113 16.0677 14.2043 16.0816 14.2979 16.0816C14.5951 16.0603 14.8765 15.9423 15.0972 15.7465C15.366 15.5128 15.5939 15.2377 15.7719 14.9321V14.9268C15.9389 14.6193 15.8824 14.3284 15.6413 14.1316C15.1586 13.7191 14.6366 13.3527 14.0824 13.0374C13.7114 12.8406 13.3343 12.9598 13.1814 13.1592L12.8555 13.5608C12.6884 13.7603 12.3848 13.7326 12.3848 13.7326L12.3761 13.7379C10.1121 13.1725 9.50811 10.9316 9.50811 10.9316C9.50811 10.9316 9.47981 10.6268 9.68929 10.4715L10.0974 10.1502C10.2927 9.99486 10.4287 9.62677 10.2193 9.26348C9.899 8.721 9.52503 8.21058 9.10274 7.73954C9.01043 7.62849 8.88091 7.55294 8.7371 7.52624L8.73819 7.5273ZM12.1214 8.29125C12.1214 8.06742 12.307 7.88598 12.536 7.88598H12.5776L12.5915 7.88689C13.5187 7.94773 14.2884 8.25907 14.8494 8.84759L14.8501 8.84835C15.3992 9.42734 15.6758 10.1525 15.6559 10.9934C15.6506 11.2172 15.4608 11.3944 15.2319 11.3892C15.003 11.384 14.8217 11.1984 14.827 10.9746C14.8422 10.3342 14.6375 9.81655 14.2424 9.3998C13.8565 8.99515 13.306 8.74864 12.5495 8.69652H12.536C12.307 8.69652 12.1214 8.51507 12.1214 8.29125ZM12.5203 9.24311C12.2916 9.23134 12.0965 9.403 12.0845 9.62651C12.0725 9.85003 12.2481 10.0408 12.4767 10.0525C12.8238 10.0704 13.0451 10.1722 13.1842 10.3095C13.3239 10.4474 13.4285 10.6683 13.4475 11.0146C13.4598 11.2381 13.6551 11.4095 13.8837 11.3975C14.1124 11.3855 14.2877 11.1945 14.2754 10.971C14.2487 10.4847 14.093 10.0547 13.7733 9.73916C13.453 9.423 13.0157 9.2686 12.5203 9.24311Z" fill="#222222"/>
<path fill-rule="evenodd" clip-rule="evenodd" d="M8.325 0H15.6875C22.4125 0 24 1.59997 24 8.325V15.6875C24 22.4125 22.4 24 15.675 24H8.31247C1.58753 24 0 22.4 0 15.675V8.31247C0 1.59997 1.59997 0 8.325 0ZM16.0064 4.4324C13.368 3.85587 10.632 3.85587 7.99365 4.4324L7.71255 4.49382C6.13989 4.83748 4.89865 6.01667 4.50227 7.54362C3.83258 10.1234 3.83258 12.8259 4.50227 15.4057C4.8699 16.8219 5.96426 17.939 7.37574 18.3677L7.73957 20.4925C7.777 20.711 7.93309 20.8923 8.14696 20.9657C8.36083 21.0391 8.59861 20.9929 8.76752 20.8451L10.9673 18.921C12.6533 19.0138 14.3491 18.8791 16.0064 18.517L16.2874 18.4555C17.8601 18.1119 19.1013 16.9327 19.4977 15.4057C20.1674 12.8259 20.1674 10.1234 19.4977 7.54362C19.1013 6.01667 17.8601 4.83748 16.2875 4.49382L16.0064 4.4324Z" fill="#222222"/>
</svg>
