<svg width="24" height="24" viewBox="0 0 24 24" fill="none" xmlns="http://www.w3.org/2000/svg">
<path fill-rule="evenodd" clip-rule="evenodd" d="M8.325 0H15.6875C22.4125 0 24 1.59997 24 8.325V15.6875C24 22.4125 22.4 24 15.675 24H8.31247C1.58753 24 0 22.4 0 15.675V8.31247C0 1.59997 1.59997 0 8.325 0ZM16.6276 17.4969C16.5811 17.603 16.5103 17.6987 16.42 17.7776C16.3297 17.8566 16.2219 17.917 16.104 17.9548C15.986 17.9926 15.8606 18.007 15.7361 17.9969C15.6116 17.9867 15.4909 17.9524 15.382 17.8962L12.0075 15.5002L9.84167 17.326C9.79141 17.36 9.73263 17.3818 9.67072 17.3895C9.60881 17.3973 9.54576 17.3906 9.48739 17.3703L9.90258 13.9757L9.91587 13.9853L9.92436 13.9183C9.92436 13.9183 15.9968 8.86636 16.2442 8.65111C16.4946 8.43643 16.412 8.38986 16.412 8.38986C16.4262 8.128 15.9626 8.38986 15.9626 8.38986L7.91674 13.1198L4.56604 12.077C4.56604 12.077 4.05141 11.9084 4.00293 11.5375C3.95196 11.1694 4.58281 10.9695 4.58281 10.9695L17.9049 6.13343C17.9049 6.13343 19 5.68756 19 6.42593L16.6276 17.4969Z" fill="#222222"/>
</svg>
